<svg width="10" height="10" viewBox="0 0 10 10" fill="none" xmlns="http://www.w3.org/2000/svg">
<path d="M2.77825 3.18202C2.73371 3.65702 2.70246 4.49765 2.98293 4.85546C2.98293 4.85546 2.8509 3.93202 4.0345 2.77343C4.51106 2.30702 4.62121 1.67265 4.45481 1.19687C4.36028 0.927336 4.18762 0.70468 4.03762 0.549211C3.95012 0.457805 4.01731 0.307023 4.14465 0.312492C4.91496 0.346867 6.1634 0.560929 6.69387 1.89218C6.92668 2.47655 6.94387 3.08046 6.83293 3.69452C6.76262 4.08671 6.51262 4.95859 7.08293 5.06562C7.48996 5.14218 7.68684 4.81874 7.77512 4.58593C7.81184 4.48905 7.93918 4.46484 8.00793 4.54218C8.69543 5.32421 8.75403 6.2453 8.61184 7.03827C8.33684 8.57108 6.7845 9.68671 5.24231 9.68671C3.31575 9.68671 1.78215 8.58437 1.3845 6.58905C1.22434 5.78359 1.30559 4.18984 2.54778 3.06484C2.63996 2.98046 2.79075 3.05546 2.77825 3.18202Z" fill="url(#paint0_radial_34_997)"/>
<path d="M5.94615 6.04843C5.23599 5.13437 5.55396 4.0914 5.72818 3.67577C5.75162 3.62109 5.68912 3.56952 5.6399 3.60312C5.33443 3.81093 4.70865 4.29999 4.41724 4.98827C4.02271 5.91874 4.05083 6.37421 4.28443 6.93046C4.42505 7.26562 4.26177 7.33671 4.17974 7.34921C4.10005 7.36171 4.02662 7.30859 3.96802 7.25312C3.80005 7.09296 3.67896 6.88437 3.62115 6.65937C3.60865 6.61093 3.54537 6.59765 3.51646 6.63749C3.29771 6.93984 3.18443 7.42499 3.17896 7.76796C3.16177 8.82812 4.03755 9.68749 5.09693 9.68749C6.43208 9.68749 7.40474 8.21093 6.63755 6.97656C6.4149 6.61718 6.20552 6.38202 5.94615 6.04843Z" fill="url(#paint1_radial_34_997)"/>
<defs>
<radialGradient id="paint0_radial_34_997" cx="0" cy="0" r="1" gradientUnits="userSpaceOnUse" gradientTransform="translate(4.86073 9.711) rotate(-179.751) scale(5.51466 9.04846)">
<stop offset="0.314" stop-color="#FF9800"/>
<stop offset="0.662" stop-color="#FF6D00"/>
<stop offset="0.972" stop-color="#F44336"/>
</radialGradient>
<radialGradient id="paint1_radial_34_997" cx="0" cy="0" r="1" gradientUnits="userSpaceOnUse" gradientTransform="translate(5.17036 4.2233) rotate(90.5787) scale(5.77003 4.34238)">
<stop offset="0.214" stop-color="#FFF176"/>
<stop offset="0.328" stop-color="#FFF27D"/>
<stop offset="0.487" stop-color="#FFF48F"/>
<stop offset="0.672" stop-color="#FFF7AD"/>
<stop offset="0.793" stop-color="#FFF9C4"/>
<stop offset="0.822" stop-color="#FFF8BD" stop-opacity="0.804"/>
<stop offset="0.863" stop-color="#FFF6AB" stop-opacity="0.529"/>
<stop offset="0.91" stop-color="#FFF38D" stop-opacity="0.209"/>
<stop offset="0.941" stop-color="#FFF176" stop-opacity="0"/>
</radialGradient>
</defs>
</svg>
