<svg width="10" height="10" viewBox="0 0 10 10" fill="none" xmlns="http://www.w3.org/2000/svg">
<g clip-path="url(#clip0_34_1002)">
<path d="M5.05187 9.57948C5.35249 9.57948 7.67488 7.60426 9.03008 5.97949C10.3338 4.41597 9.8633 2.56982 9.57658 2.056C9.23757 1.44906 4.92526 3.44552 4.92526 3.44552C4.92526 3.44552 0.907842 1.18848 0.607225 1.6786C0.1996 2.34355 -0.3714 4.09249 0.781225 5.7189C2.00491 7.4466 4.72921 9.57948 5.05187 9.57948Z" fill="#DB0A28"/>
<path d="M5.03146 9.0477C5.03146 9.0477 9.30048 5.888 9.66726 3.95852C10.0144 2.13116 9.30375 1.24485 8.42886 0.817618C6.21104 -0.265562 5.09191 1.85996 4.98653 1.85996C4.88115 1.85996 3.83881 -0.269648 1.69451 0.651789C0.513295 1.15908 0.0182635 2.5396 0.486334 4.09495C1.17333 6.37731 5.03146 9.0477 5.03146 9.0477Z" fill="#FF262E"/>
</g>
<defs>
<clipPath id="clip0_34_1002">
<rect width="10" height="10" fill="white"/>
</clipPath>
</defs>
</svg>
